<?xml version="1.0" encoding="UTF-8"?>
<svg version="1.1" xmlns="http://www.w3.org/2000/svg" width="807" height="788">
<path d="M0 0 C0.94805511 0.00054382 1.89611023 0.00108765 2.87289429 0.00164795 C20.44177464 0.04753935 37.35151903 1.4265818 54.6875 4.375 C55.97366211 4.58930664 57.25982422 4.80361328 58.58496094 5.02441406 C128.40489915 16.91786746 128.40489915 16.91786746 141.6875 34.375 C143.42896843 37.85793686 143.13623928 41.56694859 142.6875 45.375 C141.4024517 49.0276101 139.43659976 51.69199728 136.5625 54.3125 C128.07872749 57.44780723 120.5017651 54.57657784 112.5625 51.25 C86.61231746 40.99618959 58.91504493 36.46486591 31.30859375 33.2265625 C29.78279947 33.04499208 28.25704238 32.86310889 26.73132324 32.6809082 C23.05046851 32.24201547 19.36913558 31.80729985 15.6875 31.375 C15.664291 45.15335673 15.64654133 58.93170878 15.63568783 72.7100811 C15.63047771 79.10848559 15.62341411 85.50687667 15.61206055 91.90527344 C15.60116509 98.08443457 15.59520907 104.26358284 15.59262276 110.44275284 C15.59078049 112.79574918 15.58718306 115.14874485 15.58176994 117.50173569 C15.57447111 120.80699923 15.57351278 124.11221012 15.57397461 127.41748047 C15.57037933 128.38205673 15.56678406 129.346633 15.56307983 130.34043884 C15.57220616 136.40884524 15.96947658 142.34928647 16.6875 148.375 C17.48414063 148.09785156 18.28078125 147.82070312 19.1015625 147.53515625 C20.16117187 147.17292969 21.22078125 146.81070313 22.3125 146.4375 C23.87871094 145.89802734 23.87871094 145.89802734 25.4765625 145.34765625 C39.0788303 141.22726126 54.19208674 143.07345916 67 149 C81.41753897 156.8482571 90.54846906 169.33550299 95.80078125 184.61328125 C99.74876298 201.36176762 95.87668502 217.86334008 87.46484375 232.53515625 C79.46119916 245.32339716 66.21344283 253.00949755 51.6875 256.375 C39.25719536 258.89960451 27.46298154 255.30016051 15.6875 251.375 C15.6875 286.355 15.6875 321.335 15.6875 357.375 C39.1175 357.375 62.5475 357.375 86.6875 357.375 C86.3575 355.395 86.0275 353.415 85.6875 351.375 C85.05238558 336.32883692 90.27611455 322.46350158 100 311.0625 C109.81600976 300.77441017 123.36538912 294.71654668 137.69140625 294.171875 C153.7001576 293.89449999 167.93515758 296.49009796 180.140625 307.765625 C190.44266496 318.483909 196.10461566 331.53818871 195.8125 346.3125 C195.80347656 347.18712891 195.79445313 348.06175781 195.78515625 348.96289062 C195.7617957 351.10038064 195.72593247 353.23772786 195.6875 355.375 C206.3957022 355.55051423 217.10403319 355.71650078 227.8125 355.875 C228.61458893 355.88687725 229.41667786 355.8987545 230.24307251 355.91099167 C254.55861299 356.2684094 278.86929699 356.46835088 303.1875 356.4375 C303.86725136 356.43664398 304.54700272 356.43578796 305.2473526 356.43490601 C313.39409747 356.42385434 321.5408008 356.40432716 329.6875 356.375 C329.61233154 355.83122208 329.53716309 355.28744415 329.4597168 354.72718811 C328.6738793 349.03354151 327.89655731 343.33877714 327.12402344 337.64331055 C326.83516181 335.52192238 326.54417824 333.40082197 326.25097656 331.2800293 C325.82830634 328.21998317 325.41344517 325.15896076 325 322.09765625 C324.86875732 321.15978775 324.73751465 320.22191925 324.60229492 319.25563049 C322.44653333 303.09961787 322.44653333 303.09961787 326.6875 295.375 C329.54284666 291.7319715 332.1654545 290.33158655 336.6875 289.375 C341.05994128 289.21759211 344.07511657 290.04525508 347.9375 292.125 C361.05509566 304.88806605 359.64500508 339.47421856 359.890625 356.40234375 C359.92308372 359.70578459 359.935176 363.00890795 359.9375 366.3125 C359.93851212 367.6201683 359.93851212 367.6201683 359.93954468 368.95425415 C359.83945593 451.15330765 333.54448019 531.04925868 280.6875 594.375 C279.84832031 595.38691406 279.00914062 596.39882813 278.14453125 597.44140625 C268.95223299 608.46163424 259.24601496 618.91138903 249.14004517 629.09768677 C247.73023377 630.5194053 246.32440321 631.94506788 244.91870117 633.37084961 C238.82047347 639.47670895 232.45151712 645.02143493 225.6875 650.375 C224.5183678 651.32800155 223.35020512 652.28219549 222.18359375 653.23828125 C201.08510941 670.13323614 177.73207581 683.18895548 153.6875 695.375 C152.88618652 695.78637207 152.08487305 696.19774414 151.25927734 696.62158203 C136.91989108 703.94336422 121.91583014 709.21281546 106.6875 714.375 C105.76839844 714.69130371 104.84929687 715.00760742 103.90234375 715.33349609 C76.99129951 724.55167257 46.73696214 729.49982003 18.2890625 729.54296875 C17.42456985 729.54720352 16.56007721 729.55143829 15.66938782 729.55580139 C12.88370831 729.56563245 10.09819371 729.56572837 7.3125 729.5625 C6.35586456 729.56189575 5.39922913 729.5612915 4.41360474 729.56066895 C-80.73200131 729.41488537 -158.82911756 702.08001718 -225.3125 648.375 C-225.88210449 647.91512695 -226.45170898 647.45525391 -227.03857422 646.98144531 C-234.02083536 641.29162478 -240.48249339 635.37442249 -246.48583984 628.6574707 C-250.96914135 623.65958335 -255.71892231 618.96178671 -260.5 614.25 C-266.89858552 607.9026873 -272.8745934 601.57546933 -278.3125 594.375 C-279.23791531 593.17810239 -280.1637253 591.98150987 -281.08984375 590.78515625 C-296.7819312 570.35067352 -310.25005911 548.52304623 -321.39013672 525.28466797 C-322.30542021 523.38965806 -323.24616839 521.50912358 -324.19140625 519.62890625 C-356.34655475 454.70542946 -364.11729856 379.64996883 -354.3125 308.375 C-354.17328125 307.34213867 -354.0340625 306.30927734 -353.890625 305.24511719 C-349.26204823 272.29865059 -338.02504599 240.56485991 -324.3125 210.375 C-323.92626465 209.51358398 -323.5400293 208.65216797 -323.14208984 207.76464844 C-307.48146792 173.00742696 -284.89884244 142.44165115 -259.3125 114.375 C-258.05179688 112.95767578 -258.05179688 112.95767578 -256.765625 111.51171875 C-236.60822204 88.95488823 -211.82530933 71.38717438 -186.3125 55.375 C-185.61753418 54.93478516 -184.92256836 54.49457031 -184.20654297 54.04101562 C-128.41375117 18.77636752 -66.13087224 -0.14509616 0 0 Z M-143.3125 66.375 C-144.22338379 66.88047363 -145.13426758 67.38594727 -146.07275391 67.90673828 C-162.98127808 77.39503872 -179.27815018 87.99915378 -194.1015625 100.53125 C-197.05702184 102.99587334 -200.14476452 105.19278223 -203.3125 107.375 C-200.14177004 111.04637153 -196.93615322 112.22065272 -192.1484375 112.67578125 C-180.66476344 112.71466502 -172.35620006 110.96008269 -162.6484375 104.8046875 C-156.68959806 101.15763861 -150.34132624 98.98808601 -143.3125 100.375 C-138.42581544 103.7413827 -135.97406259 108.78610767 -134.3125 114.375 C-133.35549211 120.53271744 -134.35167776 125.57891887 -136.75390625 131.26953125 C-141.01746817 137.02907981 -147.71448315 139.6449044 -154.125 142.3125 C-167.84305501 148.24143084 -178.6311657 154.09168198 -185.2109375 168.11328125 C-187.45279481 174.75140483 -187.54190946 181.97540128 -185 188.5625 C-183.45816827 191.58706129 -183.45816827 191.58706129 -180.3125 193.375 C-172.95336123 194.31260879 -166.36675172 193.88015914 -160.3125 189.375 C-156.43648012 185.68805426 -154.39079144 181.68089276 -151.9375 176.9375 C-148.42371626 170.23145522 -144.52348282 164.35252911 -137.3125 161.375 C-130.80883397 161.375 -126.83118338 163.99000548 -122.3125 168.375 C-111.84852433 180.76712025 -108.23433357 193.50998069 -109.3125 209.375 C-110.52488995 217.15278978 -113.9511019 225.12697713 -120.4050293 229.93334961 C-126.88728077 233.80201746 -133.49965739 236.55972933 -140.5625 239.1875 C-155.96737702 245.15964795 -168.15901347 253.24177849 -180.3125 264.375 C-181.11397461 265.10855713 -181.11397461 265.10855713 -181.93164062 265.85693359 C-195.34144056 278.29788765 -201.75346877 290.90184716 -205.40625 308.78125 C-206.7906066 312.74337407 -209.11155253 314.72833598 -212.75 316.6875 C-215.81385007 317.50950856 -217.29444405 317.32950565 -220.3125 316.375 C-222.41015625 314.37890625 -222.41015625 314.37890625 -224.375 311.9375 C-227.58457473 307.97796523 -229.71648024 305.71585145 -234.87109375 305.0390625 C-246.29385271 304.88407255 -257.63524157 307.56546741 -266.3125 315.375 C-271.03865768 320.64648357 -272.68151292 326.34139002 -272.3125 333.375 C-271.46679612 337.99012691 -269.86033341 341.2158873 -266.3125 344.3125 C-260.18811839 348.52301236 -254.07492619 347.64009271 -247.0625 346.625 C-242.66093206 346.16594077 -242.66093206 346.16594077 -239.8125 347.875 C-237.98410136 350.92233107 -237.23871431 353.95758857 -236.3125 357.375 C-235.03197754 357.38958252 -233.75145508 357.40416504 -232.43212891 357.41918945 C-227.64214349 357.47753875 -222.8526103 357.55476733 -218.06298828 357.63745117 C-215.99730822 357.67052916 -213.93154149 357.69861336 -211.86572266 357.72143555 C-208.88146323 357.75529846 -205.8979859 357.80762793 -202.9140625 357.86328125 C-202.00322906 357.86967117 -201.09239563 357.8760611 -200.15396118 357.88264465 C-192.56715667 358.05326681 -185.20470807 358.95498916 -179.25 363.9375 C-174.39261425 372.55544245 -176.77157438 380.56460842 -179.25390625 389.61328125 C-179.60324219 390.85464844 -179.95257813 392.09601563 -180.3125 393.375 C-182.52398531 401.435441 -184.66283077 410.98336333 -180.4375 418.6875 C-175.56519809 425.3127264 -167.38406587 430.66284966 -159.3125 432.375 C-152.46537816 433.25283613 -146.95912297 432.47610332 -141.3125 428.375 C-135.3623904 423.18242751 -132.1839432 416.45341039 -130.859375 408.734375 C-130.38459486 401.00840722 -132.71900909 394.45818781 -135.1574707 387.25341797 C-137.54747313 380.06245209 -138.69233246 374.29662909 -136.125 367 C-133.05243913 362.55008426 -129.47591712 359.93603308 -124.3125 358.375 C-118.16643284 357.43578959 -112.16013138 357.2079355 -105.94921875 357.16967773 C-104.94343277 357.15977814 -103.93764679 357.14987854 -102.90138245 357.13967896 C-99.60094498 357.1082747 -96.30049316 357.08339044 -93 357.05859375 C-90.70214479 357.038006 -88.40429321 357.01700906 -86.10644531 356.99562073 C-80.07642571 356.94058814 -74.046373 356.89109632 -68.01629639 356.84277344 C-61.85588658 356.79242057 -55.6955245 356.73680665 -49.53515625 356.68164062 C-37.46097832 356.57428934 -25.38675886 356.47279378 -13.3125 356.375 C-13.31443422 355.77548334 -13.31636845 355.17596668 -13.31836128 354.55828285 C-13.4016722 328.27965402 -13.39150118 302.00212941 -13.04904175 275.72521973 C-13.01649252 273.08684875 -12.98888023 270.44841199 -12.96633911 267.80993652 C-12.93307424 264.08910349 -12.88105072 260.36897586 -12.82421875 256.6484375 C-12.81782379 255.55254303 -12.81142883 254.45664856 -12.80484009 253.32754517 C-12.61781983 243.55138218 -11.1566394 235.17990957 -4.18359375 228.00390625 C0.9431133 223.54078133 6.31327608 222.74597483 12.89453125 222.87109375 C18.8476982 223.66198823 24.50040392 225.41876742 30.21337891 227.23999023 C38.83876613 229.94919493 45.34959316 229.91784686 53.6875 226.375 C61.62875715 222.01509412 66.20931456 215.95030459 68.98828125 207.40234375 C70.92930313 198.99847805 70.72526004 191.16888396 66.3671875 183.59765625 C61.17832505 176.73146385 53.93252243 172.3587292 45.48046875 171.02734375 C37.88528641 170.56086798 30.72545461 172.64186003 23.47583008 174.68359375 C16.10798737 176.65037752 9.58171804 176.84451624 2.375 174.125 C-6.15715632 168.56917728 -10.06501163 161.00535813 -12.3125 151.375 C-12.89896399 147.17635968 -13.21995436 142.97894606 -13.5 138.75 C-13.6227832 137.10064453 -13.6227832 137.10064453 -13.74804688 135.41796875 C-13.94616603 132.73753312 -14.13411839 130.05680892 -14.3125 127.375 C-20.50929441 125.45339789 -25.10177443 124.58055577 -31.1640625 127.1640625 C-37.80957089 130.76493269 -42.70402986 135.52819019 -47.1875 141.5625 C-48.05424452 142.70997016 -48.92143765 143.85710159 -49.7890625 145.00390625 C-51.3706687 147.11331497 -52.94733712 149.22630985 -54.5234375 151.33984375 C-61.15024552 159.98516225 -61.15024552 159.98516225 -66.3125 161.375 C-73.6759011 162.17809049 -80.31364753 162.08550832 -86.3125 157.375 C-97.79016311 146.73397748 -96.7817442 125.83440209 -98.3125 111.375 C-98.44785156 110.12074219 -98.58320313 108.86648437 -98.72265625 107.57421875 C-99.6164884 97.86795693 -99.39987178 88.11209997 -99.3125 78.375 C-81.44884379 72.35832891 -63.17835935 67.95307483 -44.5625 65 C-43.52883301 64.83234131 -42.49516602 64.66468262 -41.43017578 64.49194336 C-21.63379083 61.54236151 -21.63379083 61.54236151 -15.3125 65.375 C-11.5870934 61.6495934 -13.25559827 48.89492281 -13.24438477 43.66748047 C-13.25249921 39.90308617 -13.27672583 36.13923812 -13.3125 32.375 C-56.3458272 30.88251466 -106.0156788 45.64245527 -143.3125 66.375 Z M119.6875 330.375 C114.79736071 337.5955963 112.99897549 343.69959117 113.6875 352.375 C114.14378912 354.59277734 114.64556439 356.80158195 115.1875 359 C117.06147015 366.64830879 117.93454818 372.48554537 113.94921875 379.6171875 C110.40597593 384.5535939 105.3523897 386.02800235 99.6875 387.375 C96.81716435 387.63178415 93.97030304 387.6289597 91.09008789 387.60205078 C90.26001221 387.60234283 89.42993652 387.60263489 88.57470703 387.60293579 C85.85308076 387.60155144 83.13173422 387.58603267 80.41015625 387.5703125 C78.51444142 387.56657919 76.61872466 387.56373372 74.7230072 387.56173706 C69.74997568 387.55412568 64.77706224 387.53449872 59.80407715 387.5123291 C54.72291664 387.4918168 49.64173692 387.48272385 44.56054688 387.47265625 C34.6028129 387.45125039 24.64516629 387.41714471 14.6875 387.375 C14.69118717 387.91907501 14.69487434 388.46315002 14.69867325 389.02371216 C14.78716624 402.28698313 14.8530227 415.55020209 14.89474869 428.81370544 C14.91560684 435.22796647 14.94389283 441.64201411 14.98925781 448.05615234 C15.03277769 454.24829196 15.05665044 460.44022655 15.06700897 466.63250732 C15.07438922 468.99276964 15.08880112 471.35302096 15.11042023 473.7131958 C15.13953489 477.02388598 15.1434525 480.33373327 15.14160156 483.64453125 C15.15598267 484.61629807 15.17036377 485.58806488 15.18518066 486.58927917 C15.14251324 493.66070067 13.61108559 498.98704175 8.94140625 504.3984375 C8.38324219 504.84445312 7.82507813 505.29046875 7.25 505.75 C6.41662109 506.44222656 6.41662109 506.44222656 5.56640625 507.1484375 C-0.9371972 511.3940331 -7.79875315 510.93247154 -15.3125 510.375 C-18.1735582 509.73219082 -20.92672836 508.91634773 -23.73046875 508.0625 C-31.11163272 506.09716738 -37.3565258 506.93837009 -44.04296875 510.61328125 C-48.9384629 514.41339805 -52.19894924 520.28600968 -53.3125 526.375 C-54.32364526 536.60248567 -52.19759518 545.26054017 -45.6875 553.3125 C-40.44986299 558.73476614 -34.41818316 561.46228078 -26.875 561.8125 C-23.39097268 561.65969178 -20.33388368 560.87325457 -17 559.875 C-10.4040473 557.95348997 -3.52788746 556.82775338 3.08203125 559.25390625 C8.50303025 562.3013324 11.48080094 566.34655701 13.27568817 572.33860683 C13.6945192 574.40970968 13.82307968 576.28349643 13.83898926 578.39479065 C13.84733292 579.18585709 13.85567657 579.97692352 13.86427307 580.79196167 C13.86845749 581.65153473 13.87264191 582.51110779 13.87695312 583.39672852 C13.88939308 584.76632469 13.88939308 584.76632469 13.90208435 586.16358948 C13.91948505 588.14966157 13.93465182 590.1357542 13.94786072 592.1218586 C13.96900881 595.29271144 13.99603831 598.46346731 14.02453613 601.63426208 C14.084228 608.40196916 14.13611502 615.16972558 14.1875 621.9375 C14.25546765 630.77218068 14.32716015 639.60681768 14.40625 648.44140625 C14.41563599 649.50356983 14.42502197 650.56573341 14.43469238 651.66008377 C14.58071191 667.57917104 14.89281454 683.47304891 15.6875 699.375 C59.00464318 697.9709821 104.38418964 687.98270527 142.78222656 667.38867188 C144.76709389 666.33265328 146.76764712 665.31253689 148.7734375 664.296875 C159.09227556 659.02485198 168.87786018 653.0519035 178.58984375 646.73828125 C180.40861457 645.55624956 182.2339819 644.38560385 184.0625 643.21875 C194.9026902 636.18415849 204.96513731 628.15779975 214.46875 619.41015625 C216.46449099 617.5795558 218.49980611 615.81663517 220.5625 614.0625 C224.16596802 610.9159134 227.59565851 607.6088617 231 604.25 C231.5161084 603.74686279 232.0322168 603.24372559 232.56396484 602.7253418 C235.47024754 599.82621743 237.74552459 596.99383472 239.6875 593.375 C238.49125 593.065625 237.295 592.75625 236.0625 592.4375 C230.56331045 590.37408728 228.30616799 586.43230256 225.6875 581.375 C217.84028691 563.9026896 222.18655548 544.70472512 227.3125 527.0625 C231.67159307 511.96135614 232.03476614 498.09278577 224.328125 483.9140625 C220.8510688 478.5329041 216.92474646 475.96178847 210.6875 474.375 C205.73458728 474.04593404 200.76708284 474.05679681 195.8046875 474.07226562 C186.67851703 473.8941099 178.89865164 471.35580024 172.375 464.6875 C164.11249453 455.74200516 160.82776427 443.90530046 160.3125 431.875 C160.89639352 419.68060842 165.07298295 409.79540831 170.71386719 399.24072266 C172.90226493 395.04720822 174.78072853 390.70190449 176.6875 386.375 C176.15640625 386.16746094 175.6253125 385.95992188 175.078125 385.74609375 C170.53900694 383.76644189 167.47250629 381.96342847 165.3125 377.40234375 C163.26951329 370.7754056 164.70307076 364.91524402 166.6875 358.4375 C169.4147153 349.45716961 170.24468825 341.8645808 165.8828125 333.30859375 C162.43402823 327.72967801 157.06330429 323.73456059 150.7890625 321.78515625 C140.0851525 319.69610318 127.46132946 322.29750532 119.6875 330.375 Z M-327.3125 385.375 C-327.39776233 391.39914655 -327.2425429 397.24203395 -326.54296875 403.2265625 C-326.46129959 403.92913177 -326.37963043 404.63170105 -326.29548645 405.3555603 C-326.12260035 406.82966112 -325.94685362 408.30342913 -325.76831055 409.77685547 C-325.50313364 411.97403556 -325.2499293 414.17235471 -324.99804688 416.37109375 C-323.11994165 432.42802716 -320.04289417 447.43867046 -314.8125 462.75 C-314.41866623 463.91621384 -314.41866623 463.91621384 -314.01687622 465.10598755 C-297.84898844 512.8807582 -273.22683902 554.13572578 -239.3125 591.375 C-237.74856801 593.10287162 -236.18606479 594.83203753 -234.625 596.5625 C-233.87992187 597.3875 -233.13484375 598.2125 -232.3671875 599.0625 C-230.61762148 601.03159332 -228.9269863 603.03198686 -227.25 605.0625 C-224.57501647 608.20652174 -221.61531138 610.85825305 -218.46875 613.5234375 C-217.044563 614.74638069 -215.64745911 616.00167315 -214.28125 617.2890625 C-193.24390411 637.06713064 -167.64664673 652.75853075 -142.3125 666.375 C-141.58836914 666.76848633 -140.86423828 667.16197266 -140.11816406 667.56738281 C-101.25053174 688.34115205 -56.52596438 695.57350396 -13.3125 700.375 C-13.3125 663.085 -13.3125 625.795 -13.3125 587.375 C-20.5725 587.375 -27.8325 587.375 -35.3125 587.375 C-48.25426866 585.17734117 -60.26071256 580.13566017 -68.3125 569.375 C-78.98161222 552.30160539 -81.07101508 535.04054302 -78.3125 515.375 C-81.18069404 518.24319404 -82.31571563 521.81804992 -83.875 525.5 C-89.47154331 538.35678515 -96.40198685 550.092133 -104.07421875 561.80444336 C-118.84028129 584.45106687 -129.54505904 603.82240598 -125.3125 631.375 C-124.97949589 632.7084156 -124.64619496 634.04175713 -124.3125 635.375 C-123.86867361 639.91512569 -123.52170329 643.93093643 -125.75 648 C-129.6954667 650.11707969 -132.94411627 650.27251704 -137.3125 649.375 C-148.82213611 644.45602363 -154.58283327 632.27036041 -159.3125 621.375 C-161.25434861 616.44212488 -162.86630363 611.46973991 -164.3125 606.375 C-164.61969971 605.29968018 -164.61969971 605.29968018 -164.93310547 604.20263672 C-169.05210078 589.26042657 -170.77901116 573.99564718 -172.4375 558.62524414 C-174.70171178 538.2473381 -181.04493106 524.08161489 -194.3125 508.375 C-208.66127231 490.87488555 -220.37089158 472.9575603 -218.3125 449.375 C-217.21008701 444.13108957 -215.85484813 438.92381604 -213.06103516 434.30688477 C-208.56826946 426.64242716 -208.7603139 419.41765749 -209.0625 410.8125 C-209.11298893 408.76114429 -209.15601627 406.70983969 -209.19415283 404.65821838 C-209.23200897 402.79974908 -209.28871716 400.94169114 -209.34667969 399.08374023 C-209.30713071 394.79239393 -208.86261244 390.62647175 -208.3125 386.375 C-234.57275183 385.55461269 -260.80307268 385.23894098 -287.07537842 385.30633545 C-291.64334616 385.31686384 -296.21132031 385.32119383 -300.77929688 385.32617188 C-309.62371422 385.33666055 -318.46810244 385.35355061 -327.3125 385.375 Z M-106.3125 385.375 C-105.6525 389.335 -104.9925 393.295 -104.3125 397.375 C-103.50235675 407.81265952 -104.46018368 416.96430669 -107.33984375 426.984375 C-108.14143575 429.77867965 -108.79446759 432.51764229 -109.3125 435.375 C-103.72429407 438.99262805 -97.99317711 442.06225015 -92.01098633 444.96728516 C-68.42038943 456.44686246 -68.42038943 456.44686246 -64.0546875 466.8671875 C-62.35905741 472.59663234 -62.54898286 477.13850699 -65.078125 482.56640625 C-65.4383374 483.34910889 -65.7985498 484.13181152 -66.16967773 484.93823242 C-66.54680908 485.74236572 -66.92394043 486.54649902 -67.3125 487.375 C-68.39786807 489.720858 -69.48008739 492.06805181 -70.55664062 494.41796875 C-71.28115063 495.99944032 -72.01317814 497.57748547 -72.75195312 499.15234375 C-73.09806641 499.91417969 -73.44417969 500.67601562 -73.80078125 501.4609375 C-74.11571533 502.1420459 -74.43064941 502.8231543 -74.75512695 503.52490234 C-75.56636968 505.57412955 -75.56636968 505.57412955 -74.3125 508.375 C-73.93738281 507.72273438 -73.56226563 507.07046875 -73.17578125 506.3984375 C-66.03726857 494.20722441 -58.02662628 485.89769068 -44.0859375 482.0234375 C-33.93433971 480.27896003 -23.4665662 480.95088353 -13.3125 482.375 C-13.11136548 450.02947434 -13.71635377 417.71593309 -14.3125 385.375 C-44.6725 385.375 -75.0325 385.375 -106.3125 385.375 Z M272.6875 387.375 C272.6875 392.64366696 276.4225536 396.43785875 279.6875 400.375 C283.15009065 403.54079717 286.91456614 406.20706364 290.828125 408.78515625 C306.65896763 419.63109615 311.5393917 444.74553973 315.6875 462.375 C321.57534551 451.59405913 323.37761348 438.48588438 325.4375 426.5625 C325.64802002 425.34763916 325.85854004 424.13277832 326.07543945 422.88110352 C327.74822569 412.81768178 328.85207642 402.83264185 328.75 392.625 C328.74097656 391.43390625 328.73195313 390.2428125 328.72265625 389.015625 C328.71105469 388.14421875 328.69945312 387.2728125 328.6875 386.375 C309.99304983 386.21973048 291.36406602 386.64273839 272.6875 387.375 Z " fill="#5291C5" transform="translate(357.3125,58.625)"/>
<path d="M0 0 C8.90475211 7.36078299 12.64232375 16.23410255 14.203125 27.6171875 C14.68329521 36.71859557 12.32707155 44.15177503 6.22216797 51.03515625 C3.43257249 53.96057473 0.53724513 56.74757196 -2.421875 59.5 C-5.99852598 63.05689048 -7.04621442 64.88600095 -7.75 69.8125 C-7.63113656 73.47341791 -7.63113656 73.47341791 -4.74511719 75.34887695 C-0.99003446 77.64800453 2.98464094 78.93745902 7.171875 80.23046875 C7.98167816 80.48915741 8.79148132 80.74784607 9.62582397 81.01437378 C11.35477454 81.56581721 13.0850316 82.11317852 14.81646729 82.6567688 C19.33462536 84.07648388 23.8420858 85.52956207 28.3515625 86.9765625 C29.69146744 87.40501213 29.69146744 87.40501213 31.05844116 87.84211731 C38.68841742 90.28343458 46.2937521 92.7860228 53.875 95.375 C55.42525879 95.89259888 55.42525879 95.89259888 57.00683594 96.4206543 C69.44355111 100.69960223 69.44355111 100.69960223 71.75 105.3125 C72.07168492 109.73645669 71.4794193 112.54816085 69.49047852 116.48608398 C66.81986413 122.0518846 64.80318393 127.66843496 62.90234375 133.53515625 C62.56376846 134.56128525 62.22519318 135.58741425 61.87635803 136.64463806 C60.80757929 139.88621131 59.74694754 143.13036629 58.6875 146.375 C57.62342379 149.62283814 56.55749686 152.87003923 55.4879303 156.11607361 C54.82665245 158.12403107 54.16858066 160.13304849 53.51438904 162.14332581 C51.73030729 167.57225426 49.77555008 172.86864039 47.54322815 178.13035583 C46.3705074 181.35647148 46.1992383 183.93908458 46.75 187.3125 C48.09155783 189.46729867 48.09155783 189.46729867 50.75 190.3125 C54.94392025 190.80590238 58.62391062 190.70418326 62.625 189.3125 C72.56344298 186.13219824 81.43352316 189.18663006 90.41796875 193.6328125 C98.85013521 198.30175792 104.83093481 204.35877082 108.08984375 213.54296875 C110.23113212 222.52624362 109.42415441 231.30749656 104.75 239.3125 C102.63046992 242.22749537 100.32162501 244.79151968 97.75 247.3125 C97.00556641 248.055 97.00556641 248.055 96.24609375 248.8125 C89.07553486 255.37737135 81.76079308 255.81051216 72.44140625 255.59765625 C61.4252624 254.74667371 52.95470149 250.093072 45.34375 242.22265625 C43.19236838 239.6441621 41.56028168 236.87513967 39.98828125 233.9140625 C38.84589727 232.15456604 38.84589727 232.15456604 36.76171875 231.52734375 C34.62323972 231.14684803 34.62323972 231.14684803 32.25 232.25 C27.05557886 236.53539744 25.04407096 243.80610633 22.83203125 250.01953125 C22.57338791 250.73489548 22.31474457 251.4502597 22.04826355 252.18730164 C21.49842538 253.71172531 20.95105656 255.23704163 20.40600586 256.76318359 C19.5512442 259.15651624 18.68903174 261.54707649 17.82617188 263.9375 C15.13009057 271.43785743 12.50120516 278.95089844 10.07421875 286.54296875 C9.67678467 287.77877686 9.27935059 289.01458496 8.86987305 290.2878418 C8.14078565 292.5825518 7.42659932 294.88206707 6.72973633 297.18676758 C5.39742967 301.39483809 4.29233372 304.64211526 1.5 308.09375 C-4.96561424 310.95919268 -12.63689105 307.37112642 -18.91015625 305.109375 C-19.8176915 304.78970764 -20.72522675 304.47004028 -21.66026306 304.14068604 C-24.54708062 303.1221753 -27.42985654 302.09275798 -30.3125 301.0625 C-34.09418735 299.72151257 -37.87719731 298.38427054 -41.66015625 297.046875 C-42.57326065 296.72373825 -43.48636505 296.4006015 -44.42713928 296.06767273 C-49.86934088 294.14433585 -55.31452099 292.23153218 -60.78125 290.37890625 C-61.91240234 289.99420166 -63.04355469 289.60949707 -64.20898438 289.21313477 C-68.25791445 288.01399355 -72.04095055 287.53402892 -76.25 287.3125 C-76.27721176 289.20825251 -76.29649136 291.10411979 -76.3125 293 C-76.32410156 294.05574219 -76.33570313 295.11148437 -76.34765625 296.19921875 C-76.25799152 299.05773039 -75.82607892 301.52306522 -75.25 304.3125 C-74.11762308 317.2701273 -76.98269542 327.32313487 -85.36328125 337.33984375 C-91.67785108 343.94203374 -97.80662624 347.26400648 -107.0625 347.625 C-117.16077961 347.3652863 -126.53787108 343.42399734 -134.0703125 336.68359375 C-135.6494674 334.9735039 -136.96119557 333.24973416 -138.25 331.3125 C-138.6625 330.70277344 -139.075 330.09304688 -139.5 329.46484375 C-143.92277495 321.49463472 -143.48044282 310.97690543 -141.58984375 302.2734375 C-138.83404667 294.56674957 -133.71604444 288.92165928 -127.0625 284.3125 C-122.77431264 281.29827898 -121.23589088 278.11173629 -119.25 273.3125 C-122.28961539 268.75498743 -125.29565455 267.13111828 -130.390625 265.5859375 C-131.09797791 265.3563736 -131.80533081 265.12680969 -132.53411865 264.89028931 C-134.05816588 264.39774847 -135.58466509 263.91274295 -137.11328125 263.43457031 C-139.52346911 262.6801539 -141.92631135 261.90563774 -144.328125 261.125 C-147.64451424 260.04812506 -150.96290632 258.97785074 -154.28320312 257.91308594 C-161.25968445 255.67062117 -168.21559881 253.36918161 -175.15612793 251.0178833 C-177.21580985 250.32401797 -179.2799924 249.64496374 -181.34472656 248.96630859 C-182.5922168 248.54430176 -183.83970703 248.12229492 -185.125 247.6875 C-186.21554687 247.32398438 -187.30609375 246.96046875 -188.4296875 246.5859375 C-191.6025834 245.15330029 -193.22182095 244.15195066 -195.25 241.3125 C-196.75968652 235.09110753 -195.93841356 230.8443793 -193.78515625 224.921875 C-193.51665863 224.14293381 -193.24816101 223.36399261 -192.9715271 222.56144714 C-192.10222814 220.05544925 -191.20853666 217.55904911 -190.3125 215.0625 C-189.70821524 213.34478139 -189.10478306 211.62676262 -188.50219727 209.90844727 C-185.35391222 200.97850824 -182.14523119 192.06527683 -178.6875 183.25 C-178.39045166 182.4859082 -178.09340332 181.72181641 -177.78735352 180.93457031 C-175.81923062 176.10571859 -173.72995152 171.92985969 -169.2734375 169.0234375 C-164.41315251 167.3157698 -159.76365321 167.61621952 -155.125 169.75 C-151.89740802 172.62676676 -149.48572244 175.75398763 -146.890625 179.1953125 C-142.42639112 184.95630004 -137.25912513 187.01693033 -130.25 188.3125 C-118.54452376 189.43698441 -109.13914207 187.86854289 -99.9375 180.3125 C-92.65150461 173.3049503 -88.67986339 164.65298493 -88 154.625 C-88.16417127 145.89108854 -91.49454136 137.84369437 -97.25 131.3125 C-106.03091212 123.86498565 -116.75146636 120.4102428 -128.25 121.3125 C-129.77720418 121.61530773 -131.29848654 121.94944575 -132.8125 122.3125 C-137.83963487 123.51520524 -142.18171506 124.299636 -147 122 C-150.25599404 119.55800447 -151.94471469 118.22835593 -153.25 114.3125 C-153.57067301 108.46611653 -152.84607087 103.87759087 -151.01171875 98.3515625 C-150.77503479 97.61126801 -150.53835083 96.87097351 -150.29449463 96.10824585 C-149.52263209 93.71324683 -148.73161934 91.32520373 -147.9375 88.9375 C-147.67011017 88.12168457 -147.40272034 87.30586914 -147.12722778 86.46533203 C-135.92115149 52.33353834 -135.92115149 52.33353834 -127.25 38.3125 C-121.75138766 38.85854805 -116.80653039 39.89902671 -111.578125 41.71875 C-110.86544968 41.95966873 -110.15277435 42.20058746 -109.41850281 42.44880676 C-107.8966222 42.96405836 -106.37586501 43.48263846 -104.85617065 44.00430298 C-101.66436425 45.09913387 -98.46634896 46.17525465 -95.2686615 47.25276184 C-92.83426417 48.07346597 -90.40073113 48.89669472 -87.96728516 49.72021484 C-81.05211068 52.05718385 -74.12560939 54.35709054 -67.1875 56.625 C-66.01799805 57.01558594 -64.84849609 57.40617187 -63.64355469 57.80859375 C-62.57395508 58.15664063 -61.50435547 58.5046875 -60.40234375 58.86328125 C-59.47413818 59.16919189 -58.54593262 59.47510254 -57.58959961 59.7902832 C-55.1146381 60.55365753 -55.1146381 60.55365753 -52.25 59.3125 C-49.68751201 54.82814602 -48.77095615 51.70618574 -49.65625 46.46484375 C-50.32610534 44.03661813 -51.28296171 41.86057655 -52.3125 39.5625 C-56.04654934 30.61719498 -54.84069864 21.97617652 -51.50390625 13.0703125 C-47.95398642 5.26270066 -42.84210171 0.27813388 -35.25 -3.6875 C-23.84479765 -7.86940753 -10.08661054 -6.99770523 0 0 Z " fill="#5291C5" transform="translate(698.25,5.6875)"/>
</svg>
